<svg width="28" height="24" fill="none" xmlns="http://www.w3.org/2000/svg"><g filter="url(#filter0_d)" fill="#fff"><path d="M21.609 6.783h-2.087l-1.152-1.74A2.395 2.395 0 0016.39 4h-4.78c-.783 0-1.544.391-1.979 1.043l-1.152 1.74H6.391A2.384 2.384 0 004 9.173v8.436A2.384 2.384 0 006.391 20H21.61A2.384 2.384 0 0024 17.609V9.174a2.384 2.384 0 00-2.391-2.391zM14 18.043a5.39 5.39 0 01-5.391-5.39c0-2.98 2.413-5.37 5.391-5.37a5.39 5.39 0 015.391 5.39c0 2.957-2.413 5.37-5.391 5.37zm7.304-7.89h-.957a.708.708 0 010-1.413h.87a.706.706 0 01.74.673.688.688 0 01-.653.74z"/><path d="M14 9.674c-1.652 0-3 1.348-3 3s1.348 2.978 3 2.978 3-1.347 3-3c0-1.652-1.348-2.978-3-2.978z"/></g><defs><filter id="filter0_d" x="0" y="-2" width="28" height="28" filterUnits="userSpaceOnUse" color-interpolation-filters="sRGB"><feFlood flood-opacity="0" result="BackgroundImageFix"/><feColorMatrix in="SourceAlpha" values="0 0 0 0 0 0 0 0 0 0 0 0 0 0 0 0 0 0 127 0" result="hardAlpha"/><feOffset/><feGaussianBlur stdDeviation="2"/><feComposite in2="hardAlpha" operator="out"/><feColorMatrix values="0 0 0 0 0 0 0 0 0 0 0 0 0 0 0 0 0 0 0.1 0"/><feBlend in2="BackgroundImageFix" result="effect1_dropShadow"/><feBlend in="SourceGraphic" in2="effect1_dropShadow" result="shape"/></filter></defs></svg>