<svg width="100" height="30" fill="none" xmlns="http://www.w3.org/2000/svg"><rect width="100" height="30" rx="11" fill="#7452FF"/><path d="M37.037 19.732h-.931l3.562-9.263h.926l-3.557 9.263zM42.943 19H41.86v-9h1.084v9zm1.454-3.229c0-.62.12-1.18.363-1.675a2.758 2.758 0 011.02-1.149 2.79 2.79 0 011.493-.404c.864 0 1.561.299 2.092.897.535.597.803 1.392.803 2.384v.076a3.77 3.77 0 01-.358 1.664 2.67 2.67 0 01-1.013 1.143c-.438.273-.941.41-1.512.41-.86 0-1.556-.299-2.092-.896-.53-.598-.796-1.389-.796-2.373v-.077zm1.09.13c0 .703.161 1.267.486 1.693.328.425.765.638 1.312.638.55 0 .988-.214 1.313-.644.324-.434.486-1.04.486-1.817 0-.695-.166-1.257-.498-1.687a1.564 1.564 0 00-1.313-.65 1.56 1.56 0 00-1.295.638c-.328.426-.492 1.035-.492 1.828zm5.782-.124c0-.988.229-1.773.686-2.355.457-.586 1.063-.879 1.817-.879.773 0 1.376.273 1.81.82l.053-.703h.99v6.188c0 .82-.244 1.466-.732 1.94-.485.472-1.137.708-1.958.708a3.26 3.26 0 01-1.341-.293c-.438-.195-.772-.463-1.002-.803l.562-.65c.465.574 1.033.861 1.705.861.528 0 .938-.148 1.23-.445.298-.297.446-.715.446-1.254v-.545c-.433.5-1.025.75-1.775.75-.742 0-1.344-.299-1.805-.896-.457-.598-.685-1.412-.685-2.444zm1.09.123c0 .715.147 1.278.44 1.688.293.406.703.61 1.23.61.684 0 1.186-.311 1.506-.932V14.37c-.332-.605-.83-.908-1.494-.908-.527 0-.94.205-1.236.615-.297.41-.446 1.018-.446 1.822zm5.62-.129c0-.62.12-1.18.363-1.675a2.758 2.758 0 011.02-1.149 2.79 2.79 0 011.493-.404c.864 0 1.561.299 2.092.897.535.597.803 1.392.803 2.384v.076c0 .618-.12 1.172-.357 1.664a2.67 2.67 0 01-1.014 1.143c-.438.273-.941.41-1.512.41-.86 0-1.556-.299-2.092-.896-.53-.598-.797-1.389-.797-2.373v-.077zm1.09.13c0 .703.161 1.267.486 1.693.328.425.765.638 1.312.638.551 0 .989-.214 1.313-.644.324-.434.486-1.04.486-1.817 0-.695-.166-1.257-.498-1.687a1.564 1.564 0 00-1.313-.65c-.535 0-.966.213-1.294.638-.329.426-.493 1.035-.493 1.828z" fill="#fff"/></svg>