<svg width="30" height="30" fill="none" xmlns="http://www.w3.org/2000/svg"><path d="M30 15c0-1.116-.804-2.305-1.795-2.656-.991-.35-1.952-1.21-2.231-1.887-.28-.678-.207-1.967.245-2.917.452-.95.178-2.36-.611-3.148-.789-.79-2.199-1.063-3.149-.611-.95.452-2.237.526-2.912.246-.676-.28-1.536-1.241-1.888-2.233C17.306.804 16.116 0 15 0c-1.116 0-2.306.803-2.66 1.794-.352.992-1.21 1.954-1.886 2.233-.676.28-1.964.206-2.914-.246-.95-.452-2.36-.179-3.148.61-.79.79-1.063 2.2-.611 3.15.452.95.524 2.238.243 2.914-.28.677-1.238 1.538-2.23 1.889C.804 12.694 0 13.884 0 15s.803 2.306 1.794 2.66c.992.351 1.95 1.212 2.231 1.888.281.675.208 1.962-.244 2.912-.452.95-.179 2.36.61 3.148.79.789 2.2 1.063 3.15.611.95-.452 2.237-.525 2.912-.245.677.28 1.535 1.245 1.888 2.234C12.694 29.198 13.884 30 15 30c1.116 0 2.306-.803 2.66-1.792.351-.99 1.21-1.952 1.885-2.234.676-.28 1.965-.207 2.914.246.95.452 2.36.178 3.149-.61.789-.79 1.063-2.2.611-3.15-.452-.95-.526-2.237-.247-2.913.28-.675 1.242-1.535 2.234-1.887C29.196 17.306 30 16.116 30 15zm-15 5.504a5.498 5.498 0 01-5.504-5.498A5.5 5.5 0 0115 9.502a5.499 5.499 0 015.498 5.504A5.497 5.497 0 0115 20.504z" fill="#5263FF" fill-opacity=".4"/></svg>